<svg id="visual" viewBox="0 0 2560 160" width="2560" height="160" xmlns="http://www.w3.org/2000/svg" xmlns:xlink="http://www.w3.org/1999/xlink" version="1.1"><rect x="0" y="0" width="2560" height="160" fill="#eaeaea"></rect><path d="M0 120L61 115.8C122 111.7 244 103.3 365.8 97.5C487.7 91.7 609.3 88.3 731.2 94C853 99.7 975 114.3 1097 115.3C1219 116.3 1341 103.7 1463 101.2C1585 98.7 1707 106.3 1828.8 108.2C1950.7 110 2072.3 106 2194.2 101.7C2316 97.3 2438 92.7 2499 90.3L2560 88L2560 0L2499 0C2438 0 2316 0 2194.2 0C2072.3 0 1950.7 0 1828.8 0C1707 0 1585 0 1463 0C1341 0 1219 0 1097 0C975 0 853 0 731.2 0C609.3 0 487.7 0 365.8 0C244 0 122 0 61 0L0 0Z" fill="#eaeaea"></path><path d="M0 105L61 98.8C122 92.7 244 80.3 365.8 75.8C487.7 71.3 609.3 74.7 731.2 77.5C853 80.3 975 82.7 1097 82.3C1219 82 1341 79 1463 80.8C1585 82.7 1707 89.3 1828.8 94.8C1950.7 100.3 2072.3 104.7 2194.2 100.5C2316 96.3 2438 83.7 2499 77.3L2560 71L2560 0L2499 0C2438 0 2316 0 2194.2 0C2072.3 0 1950.7 0 1828.8 0C1707 0 1585 0 1463 0C1341 0 1219 0 1097 0C975 0 853 0 731.2 0C609.3 0 487.7 0 365.8 0C244 0 122 0 61 0L0 0Z" fill="#c1dbdc"></path><path d="M0 81L61 78.3C122 75.7 244 70.3 365.8 66.2C487.7 62 609.3 59 731.2 57C853 55 975 54 1097 57.7C1219 61.3 1341 69.7 1463 74.2C1585 78.7 1707 79.3 1828.8 75.3C1950.7 71.3 2072.3 62.7 2194.2 57.7C2316 52.7 2438 51.3 2499 50.7L2560 50L2560 0L2499 0C2438 0 2316 0 2194.2 0C2072.3 0 1950.7 0 1828.8 0C1707 0 1585 0 1463 0C1341 0 1219 0 1097 0C975 0 853 0 731.2 0C609.3 0 487.7 0 365.8 0C244 0 122 0 61 0L0 0Z" fill="#95cccf"></path><path d="M0 53L61 52.5C122 52 244 51 365.8 49.5C487.7 48 609.3 46 731.2 47.3C853 48.7 975 53.3 1097 51.8C1219 50.3 1341 42.7 1463 40.7C1585 38.7 1707 42.3 1828.8 44C1950.7 45.7 2072.3 45.3 2194.2 44.5C2316 43.7 2438 42.3 2499 41.7L2560 41L2560 0L2499 0C2438 0 2316 0 2194.2 0C2072.3 0 1950.7 0 1828.8 0C1707 0 1585 0 1463 0C1341 0 1219 0 1097 0C975 0 853 0 731.2 0C609.3 0 487.7 0 365.8 0C244 0 122 0 61 0L0 0Z" fill="#64bdc2"></path><path d="M0 18L61 17.7C122 17.3 244 16.7 365.8 19.8C487.7 23 609.3 30 731.2 32.8C853 35.7 975 34.3 1097 32.5C1219 30.7 1341 28.3 1463 27C1585 25.7 1707 25.3 1828.8 26.3C1950.7 27.3 2072.3 29.7 2194.2 29.5C2316 29.3 2438 26.7 2499 25.3L2560 24L2560 0L2499 0C2438 0 2316 0 2194.2 0C2072.3 0 1950.7 0 1828.8 0C1707 0 1585 0 1463 0C1341 0 1219 0 1097 0C975 0 853 0 731.2 0C609.3 0 487.7 0 365.8 0C244 0 122 0 61 0L0 0Z" fill="#00adb5"></path></svg>