<svg id="visual" viewBox="0 0 1080 160" width="1080" height="160" xmlns="http://www.w3.org/2000/svg" xmlns:xlink="http://www.w3.org/1999/xlink" version="1.1"><rect x="0" y="0" width="1080" height="160" fill="#eaeaea"></rect><path d="M0 135L22.5 129.2C45 123.3 90 111.7 135 106C180 100.3 225 100.7 270 101.2C315 101.7 360 102.3 405 103.7C450 105 495 107 540 111.8C585 116.7 630 124.3 675 125.3C720 126.3 765 120.7 810 120.8C855 121 900 127 945 126.7C990 126.3 1035 119.7 1057.5 116.3L1080 113L1080 0L1057.5 0C1035 0 990 0 945 0C900 0 855 0 810 0C765 0 720 0 675 0C630 0 585 0 540 0C495 0 450 0 405 0C360 0 315 0 270 0C225 0 180 0 135 0C90 0 45 0 22.5 0L0 0Z" fill="#eaeaea"></path><path d="M0 94L22.5 92.5C45 91 90 88 135 92.2C180 96.3 225 107.7 270 108C315 108.3 360 97.7 405 95.8C450 94 495 101 540 105.5C585 110 630 112 675 112.8C720 113.7 765 113.3 810 111.7C855 110 900 107 945 103.3C990 99.7 1035 95.3 1057.5 93.2L1080 91L1080 0L1057.5 0C1035 0 990 0 945 0C900 0 855 0 810 0C765 0 720 0 675 0C630 0 585 0 540 0C495 0 450 0 405 0C360 0 315 0 270 0C225 0 180 0 135 0C90 0 45 0 22.5 0L0 0Z" fill="#cfe0e1"></path><path d="M0 77L22.5 77C45 77 90 77 135 80C180 83 225 89 270 89.2C315 89.3 360 83.7 405 83.7C450 83.7 495 89.3 540 90C585 90.7 630 86.3 675 87.8C720 89.3 765 96.7 810 100.3C855 104 900 104 945 99C990 94 1035 84 1057.5 79L1080 74L1080 0L1057.5 0C1035 0 990 0 945 0C900 0 855 0 810 0C765 0 720 0 675 0C630 0 585 0 540 0C495 0 450 0 405 0C360 0 315 0 270 0C225 0 180 0 135 0C90 0 45 0 22.5 0L0 0Z" fill="#b2d6d8"></path><path d="M0 73L22.5 69.7C45 66.3 90 59.7 135 58.7C180 57.7 225 62.3 270 67.3C315 72.3 360 77.7 405 76C450 74.3 495 65.7 540 63.2C585 60.7 630 64.3 675 67.2C720 70 765 72 810 71.5C855 71 900 68 945 68.3C990 68.7 1035 72.3 1057.5 74.2L1080 76L1080 0L1057.5 0C1035 0 990 0 945 0C900 0 855 0 810 0C765 0 720 0 675 0C630 0 585 0 540 0C495 0 450 0 405 0C360 0 315 0 270 0C225 0 180 0 135 0C90 0 45 0 22.5 0L0 0Z" fill="#95cccf"></path><path d="M0 61L22.5 60C45 59 90 57 135 54.3C180 51.7 225 48.3 270 50.2C315 52 360 59 405 58.8C450 58.7 495 51.3 540 48.5C585 45.7 630 47.3 675 48.8C720 50.3 765 51.7 810 50.8C855 50 900 47 945 47.8C990 48.7 1035 53.3 1057.5 55.7L1080 58L1080 0L1057.5 0C1035 0 990 0 945 0C900 0 855 0 810 0C765 0 720 0 675 0C630 0 585 0 540 0C495 0 450 0 405 0C360 0 315 0 270 0C225 0 180 0 135 0C90 0 45 0 22.5 0L0 0Z" fill="#75c2c6"></path><path d="M0 48L22.5 46.2C45 44.3 90 40.7 135 39.8C180 39 225 41 270 43.2C315 45.3 360 47.7 405 44.7C450 41.7 495 33.3 540 30.8C585 28.3 630 31.7 675 33.8C720 36 765 37 810 38.5C855 40 900 42 945 40.7C990 39.3 1035 34.7 1057.5 32.3L1080 30L1080 0L1057.5 0C1035 0 990 0 945 0C900 0 855 0 810 0C765 0 720 0 675 0C630 0 585 0 540 0C495 0 450 0 405 0C360 0 315 0 270 0C225 0 180 0 135 0C90 0 45 0 22.5 0L0 0Z" fill="#50b7be"></path><path d="M0 31L22.5 30.8C45 30.7 90 30.3 135 28.2C180 26 225 22 270 21.3C315 20.7 360 23.3 405 23.7C450 24 495 22 540 20.3C585 18.7 630 17.3 675 16.2C720 15 765 14 810 13.7C855 13.3 900 13.7 945 13.2C990 12.7 1035 11.3 1057.5 10.7L1080 10L1080 0L1057.5 0C1035 0 990 0 945 0C900 0 855 0 810 0C765 0 720 0 675 0C630 0 585 0 540 0C495 0 450 0 405 0C360 0 315 0 270 0C225 0 180 0 135 0C90 0 45 0 22.5 0L0 0Z" fill="#00adb5"></path></svg>