<svg id="visual" viewBox="0 0 1080 160" width="1080" height="160" xmlns="http://www.w3.org/2000/svg" xmlns:xlink="http://www.w3.org/1999/xlink" version="1.1"><rect x="0" y="0" width="1080" height="160" fill="#eaeaea"></rect><path d="M0 138L22.5 136.3C45 134.7 90 131.3 135 130.5C180 129.7 225 131.3 270 129.8C315 128.3 360 123.7 405 118.5C450 113.3 495 107.7 540 105C585 102.3 630 102.7 675 103.2C720 103.7 765 104.3 810 108.3C855 112.3 900 119.7 945 126C990 132.3 1035 137.7 1057.5 140.3L1080 143L1080 0L1057.5 0C1035 0 990 0 945 0C900 0 855 0 810 0C765 0 720 0 675 0C630 0 585 0 540 0C495 0 450 0 405 0C360 0 315 0 270 0C225 0 180 0 135 0C90 0 45 0 22.5 0L0 0Z" fill="#eaeaea"></path><path d="M0 117L22.5 113.8C45 110.7 90 104.3 135 104.8C180 105.3 225 112.7 270 114.7C315 116.7 360 113.3 405 107.5C450 101.7 495 93.3 540 89C585 84.7 630 84.3 675 87.3C720 90.3 765 96.7 810 100.8C855 105 900 107 945 108.5C990 110 1035 111 1057.5 111.5L1080 112L1080 0L1057.5 0C1035 0 990 0 945 0C900 0 855 0 810 0C765 0 720 0 675 0C630 0 585 0 540 0C495 0 450 0 405 0C360 0 315 0 270 0C225 0 180 0 135 0C90 0 45 0 22.5 0L0 0Z" fill="#cfe0e1"></path><path d="M0 99L22.5 99.7C45 100.3 90 101.7 135 101.5C180 101.3 225 99.7 270 96.3C315 93 360 88 405 88.5C450 89 495 95 540 96.7C585 98.3 630 95.7 675 95.8C720 96 765 99 810 99C855 99 900 96 945 91.5C990 87 1035 81 1057.5 78L1080 75L1080 0L1057.5 0C1035 0 990 0 945 0C900 0 855 0 810 0C765 0 720 0 675 0C630 0 585 0 540 0C495 0 450 0 405 0C360 0 315 0 270 0C225 0 180 0 135 0C90 0 45 0 22.5 0L0 0Z" fill="#b2d6d8"></path><path d="M0 87L22.5 82.8C45 78.7 90 70.3 135 65.7C180 61 225 60 270 61.7C315 63.3 360 67.7 405 71.3C450 75 495 78 540 76.5C585 75 630 69 675 67.3C720 65.7 765 68.3 810 68.5C855 68.7 900 66.3 945 66C990 65.7 1035 67.3 1057.5 68.2L1080 69L1080 0L1057.5 0C1035 0 990 0 945 0C900 0 855 0 810 0C765 0 720 0 675 0C630 0 585 0 540 0C495 0 450 0 405 0C360 0 315 0 270 0C225 0 180 0 135 0C90 0 45 0 22.5 0L0 0Z" fill="#95cccf"></path><path d="M0 56L22.5 54.3C45 52.7 90 49.3 135 49.5C180 49.7 225 53.3 270 52.5C315 51.7 360 46.3 405 45C450 43.7 495 46.3 540 46.2C585 46 630 43 675 43.3C720 43.7 765 47.3 810 47.5C855 47.7 900 44.3 945 46.3C990 48.3 1035 55.7 1057.5 59.3L1080 63L1080 0L1057.5 0C1035 0 990 0 945 0C900 0 855 0 810 0C765 0 720 0 675 0C630 0 585 0 540 0C495 0 450 0 405 0C360 0 315 0 270 0C225 0 180 0 135 0C90 0 45 0 22.5 0L0 0Z" fill="#75c2c6"></path><path d="M0 39L22.5 38.3C45 37.7 90 36.3 135 37.5C180 38.7 225 42.3 270 40.3C315 38.3 360 30.7 405 31C450 31.3 495 39.7 540 42.2C585 44.7 630 41.3 675 41.2C720 41 765 44 810 42.3C855 40.7 900 34.3 945 32C990 29.7 1035 31.3 1057.5 32.2L1080 33L1080 0L1057.5 0C1035 0 990 0 945 0C900 0 855 0 810 0C765 0 720 0 675 0C630 0 585 0 540 0C495 0 450 0 405 0C360 0 315 0 270 0C225 0 180 0 135 0C90 0 45 0 22.5 0L0 0Z" fill="#50b7be"></path><path d="M0 24L22.5 24.5C45 25 90 26 135 26.8C180 27.7 225 28.3 270 28.3C315 28.3 360 27.7 405 27.3C450 27 495 27 540 25.3C585 23.7 630 20.3 675 19.8C720 19.3 765 21.7 810 23.3C855 25 900 26 945 25C990 24 1035 21 1057.5 19.5L1080 18L1080 0L1057.5 0C1035 0 990 0 945 0C900 0 855 0 810 0C765 0 720 0 675 0C630 0 585 0 540 0C495 0 450 0 405 0C360 0 315 0 270 0C225 0 180 0 135 0C90 0 45 0 22.5 0L0 0Z" fill="#00adb5"></path></svg>